<svg width="190" height="83" viewBox="0 0 190 83" fill="none" xmlns="http://www.w3.org/2000/svg">
<path d="M72.6995 52.748C74.8195 52.748 76.4795 52.273 77.6795 51.323C78.8795 50.373 79.4795 49.068 79.4795 47.408C79.4795 46.148 79.0895 45.153 78.3095 44.423C77.5395 43.693 76.2295 43.088 74.3795 42.608C73.1195 42.288 72.1795 42.028 71.5595 41.828C70.9495 41.628 70.5445 41.433 70.3445 41.243C70.1545 41.053 70.0595 40.818 70.0595 40.538C70.0595 40.068 70.2845 39.708 70.7345 39.458C71.1945 39.208 71.7995 39.108 72.5495 39.158C74.1395 39.278 75.0095 39.958 75.1595 41.198L79.3295 40.448C79.1195 38.978 78.3995 37.813 77.1695 36.953C75.9395 36.083 74.3695 35.648 72.4595 35.648C70.4995 35.648 68.9345 36.108 67.7645 37.028C66.5945 37.948 66.0095 39.188 66.0095 40.748C66.0095 41.988 66.4145 42.968 67.2245 43.688C68.0345 44.398 69.4295 45.008 71.4095 45.518C72.5795 45.828 73.4395 46.078 73.9895 46.268C74.5495 46.458 74.9095 46.653 75.0695 46.853C75.2295 47.043 75.3095 47.298 75.3095 47.618C75.3095 48.128 75.1095 48.528 74.7095 48.818C74.3095 49.098 73.7395 49.238 72.9995 49.238C72.0995 49.238 71.3545 49.023 70.7645 48.593C70.1845 48.163 69.8095 47.568 69.6395 46.808L65.4695 47.438C65.7395 49.128 66.4995 50.438 67.7495 51.368C69.0095 52.288 70.6595 52.748 72.6995 52.748ZM82.7458 52.298H86.8858V44.078C86.8858 43.068 86.9958 42.258 87.2158 41.648C87.4458 41.038 87.7358 40.578 88.0858 40.268C88.4358 39.948 88.8108 39.733 89.2108 39.623C89.6108 39.513 89.9858 39.458 90.3358 39.458C91.2058 39.458 91.8758 39.653 92.3458 40.043C92.8258 40.433 93.1708 40.918 93.3808 41.498C93.5908 42.078 93.7158 42.658 93.7558 43.238C93.7958 43.808 93.8158 44.278 93.8158 44.648V52.298H97.9558V43.208C97.9558 42.938 97.9358 42.508 97.8958 41.918C97.8558 41.328 97.7408 40.678 97.5508 39.968C97.3608 39.248 97.0408 38.558 96.5908 37.898C96.1508 37.238 95.5308 36.693 94.7308 36.263C93.9308 35.833 92.8958 35.618 91.6258 35.618C90.4558 35.618 89.4358 35.813 88.5658 36.203C87.6958 36.593 86.9658 37.113 86.3758 37.763V30.698H82.7458V52.298ZM102.148 33.848H106.228V30.248H102.148V33.848ZM102.148 52.298H106.228V36.098H102.148V52.298ZM110.695 59.498H114.805V51.713C115.335 52.043 115.92 52.298 116.56 52.478C117.21 52.658 117.915 52.748 118.675 52.748C120.165 52.748 121.47 52.373 122.59 51.623C123.71 50.873 124.58 49.853 125.2 48.563C125.83 47.273 126.145 45.818 126.145 44.198C126.145 42.548 125.825 41.083 125.185 39.803C124.555 38.513 123.665 37.498 122.515 36.758C121.365 36.018 120.015 35.648 118.465 35.648C117.625 35.648 116.855 35.768 116.155 36.008C115.465 36.238 114.845 36.568 114.295 36.998V36.098H110.695V59.498ZM118.015 49.118C116.655 49.118 115.695 48.668 115.135 47.768C114.575 46.858 114.295 45.668 114.295 44.198C114.295 42.728 114.57 41.543 115.12 40.643C115.68 39.733 116.595 39.278 117.865 39.278C118.775 39.278 119.52 39.503 120.1 39.953C120.69 40.393 121.125 40.988 121.405 41.738C121.685 42.478 121.825 43.298 121.825 44.198C121.825 45.108 121.69 45.938 121.42 46.688C121.15 47.428 120.735 48.018 120.175 48.458C119.615 48.898 118.895 49.118 118.015 49.118ZM129.746 52.298H133.826V30.248H129.746V52.298ZM142.823 52.748C144.073 52.748 145.123 52.558 145.973 52.178C146.833 51.788 147.623 51.168 148.343 50.318V52.298H151.913V42.398C151.913 41.658 151.883 40.988 151.823 40.388C151.763 39.788 151.573 39.188 151.253 38.588C150.683 37.508 149.843 36.748 148.733 36.308C147.623 35.868 146.353 35.648 144.923 35.648C142.973 35.648 141.433 36.068 140.303 36.908C139.173 37.748 138.403 38.838 137.993 40.178L141.683 41.348C141.943 40.608 142.398 40.093 143.048 39.803C143.698 39.513 144.323 39.368 144.923 39.368C145.883 39.368 146.598 39.548 147.068 39.908C147.538 40.258 147.813 40.813 147.893 41.573C146.373 41.793 145.033 42.008 143.873 42.218C142.713 42.418 141.743 42.658 140.963 42.938C139.663 43.418 138.748 44.073 138.218 44.903C137.688 45.723 137.423 46.698 137.423 47.828C137.423 48.728 137.628 49.553 138.038 50.303C138.458 51.043 139.068 51.638 139.868 52.088C140.678 52.528 141.663 52.748 142.823 52.748ZM143.693 49.538C142.993 49.538 142.438 49.383 142.028 49.073C141.618 48.753 141.413 48.318 141.413 47.768C141.413 47.358 141.543 47.008 141.803 46.718C142.063 46.418 142.493 46.148 143.093 45.908C143.553 45.738 144.118 45.583 144.788 45.443C145.468 45.293 146.493 45.103 147.863 44.873C147.853 45.263 147.823 45.693 147.773 46.163C147.723 46.623 147.613 47.028 147.443 47.378C147.333 47.608 147.123 47.893 146.813 48.233C146.513 48.573 146.103 48.878 145.583 49.148C145.073 49.408 144.443 49.538 143.693 49.538ZM162.953 52.748C164.833 52.748 166.413 52.283 167.693 51.353C168.973 50.423 169.843 49.098 170.303 47.378L166.133 46.508C165.893 47.288 165.533 47.888 165.053 48.308C164.573 48.728 163.873 48.938 162.953 48.938C161.723 48.938 160.793 48.503 160.163 47.633C159.543 46.753 159.233 45.608 159.233 44.198C159.233 42.848 159.528 41.723 160.118 40.823C160.718 39.913 161.663 39.458 162.953 39.458C163.703 39.458 164.373 39.693 164.963 40.163C165.563 40.633 165.983 41.288 166.223 42.128L170.303 41.048C169.943 39.378 169.113 38.063 167.813 37.103C166.523 36.133 164.923 35.648 163.013 35.648C161.363 35.648 159.933 36.018 158.723 36.758C157.513 37.498 156.573 38.513 155.903 39.803C155.243 41.093 154.913 42.558 154.913 44.198C154.913 45.818 155.233 47.273 155.873 48.563C156.513 49.853 157.433 50.873 158.633 51.623C159.833 52.373 161.273 52.748 162.953 52.748ZM180.394 52.748C181.954 52.748 183.389 52.338 184.699 51.518C186.019 50.698 186.984 49.548 187.594 48.068L183.514 46.898C182.894 48.258 181.774 48.938 180.154 48.938C179.044 48.938 178.169 48.628 177.529 48.008C176.899 47.388 176.509 46.498 176.359 45.338H187.729C187.899 43.378 187.699 41.673 187.129 40.223C186.559 38.773 185.679 37.648 184.489 36.848C183.299 36.048 181.854 35.648 180.154 35.648C178.554 35.648 177.139 36.013 175.909 36.743C174.679 37.463 173.714 38.478 173.014 39.788C172.314 41.098 171.964 42.638 171.964 44.408C171.964 46.028 172.319 47.468 173.029 48.728C173.749 49.978 174.739 50.963 175.999 51.683C177.269 52.393 178.734 52.748 180.394 52.748ZM180.334 39.188C181.314 39.188 182.064 39.433 182.584 39.923C183.114 40.413 183.454 41.208 183.604 42.308H176.464C176.894 40.228 178.184 39.188 180.334 39.188Z" fill="black"/>
<path d="M0.078125 57.939L0.634628 24.3456L26.7589 36.5064L26.6097 70.6488L0.078125 57.939Z" fill="#FFC04D"/>
<path d="M52.7584 57.939L52.7588 24.3646L26.6056 36.7209V70.6573L52.7584 57.939Z" fill="#71C3FD"/>
<path d="M53.0155 24.3144L26.8627 11.9542L0.709961 24.3144L26.8627 36.6745L53.0155 24.3144Z" fill="#FF341B"/>
</svg>
